HIERARCHY
ROOT hip
{
	OFFSET 0.000000 0.000000 0.000000 
	CHANNELS 6 Xposition Yposition Zposition Xrotation Zrotation Yrotation
	JOINT abdomen
	{
		OFFSET 0.000000 3.402643 0.000000 
		CHANNELS 3 Xrotation Zrotation Yrotation
		JOINT chest
		{
			OFFSET 0.000000 8.438565 -0.680529 
			CHANNELS 3 Xrotation Zrotation Yrotation
			JOINT neck
			{
				OFFSET 0.000000 10.207942 -0.272212 
				CHANNELS 3 Xrotation Zrotation Yrotation
				JOINT head
				{
					OFFSET 0.000000 3.130431 0.000000 
					CHANNELS 3 Xrotation Zrotation Yrotation
					End Site
					{
						OFFSET 0.000000 3.130435 0.000000 
					}
				}
			}
			JOINT lCollar
			{
				OFFSET 3.470700 6.669187 -0.816635 
				CHANNELS 3 Yrotation Zrotation Xrotation
				JOINT lShldr
				{
					OFFSET 3.198488 0.000000 0.000000 
					CHANNELS 3 Zrotation Yrotation Xrotation
					JOINT lForeArm
					{
						OFFSET 10.139888 0.000000 0.000000 
						CHANNELS 3 Yrotation Zrotation Xrotation
						JOINT lHand
						{
							OFFSET 8.370511 0.000000 0.000000 
							CHANNELS 3 Zrotation Yrotation Xrotation
							End Site
							{
								OFFSET 4.083176 0.000000 0.000000 
							}
						}
					}
				}
			}
			JOINT rCollar
			{
				OFFSET -3.470700 6.669187 -0.816635 
				CHANNELS 3 Yrotation Zrotation Xrotation
				JOINT rShldr
				{
					OFFSET -3.198488 0.000000 0.000000 
					CHANNELS 3 Zrotation Yrotation Xrotation
					JOINT rForeArm
					{
						OFFSET -10.139888 0.000000 0.000000 
						CHANNELS 3 Yrotation Zrotation Xrotation
						JOINT rHand
						{
							OFFSET -8.370511 0.000000 0.000000 
							CHANNELS 3 Zrotation Yrotation Xrotation
							End Site
							{
								OFFSET -4.083176 0.000000 0.000000 
							}
						}
					}
				}
			}
		}
	}
	JOINT lThigh
	{
		OFFSET 5.308129 -1.633274 1.361059 
		CHANNELS 3 Xrotation Zrotation Yrotation
		JOINT lShin
		{
			OFFSET -2.041588 -20.007561 0.000000 
			CHANNELS 3 Xrotation Zrotation Yrotation
			JOINT lFoot
			{
				OFFSET 0.000000 -19.190928 -1.224953 
				CHANNELS 3 Xrotation Yrotation Zrotation
				End Site
				{
					OFFSET 0.000000 -2.449906 4.627600 
				}
			}
		}
	}
	JOINT rThigh
	{
		OFFSET -5.308129 -1.633274 1.361059 
		CHANNELS 3 Xrotation Zrotation Yrotation
		JOINT rShin
		{
			OFFSET 2.041588 -20.007561 0.000000 
			CHANNELS 3 Xrotation Zrotation Yrotation
			JOINT rFoot
			{
				OFFSET 0.000000 -19.190928 -1.224953 
				CHANNELS 3 Xrotation Yrotation Zrotation
				End Site
				{
					OFFSET 0.000000 -2.449906 4.627600 
				}
			}
		}
	}
}
MOTION
Frames: 10
Frame Time: 0.033333
-0.193089 49.326679 -2.072670 -11.820466 -1.491147 1.522866 0.000000 0.000000 0.000000 4.268124 -0.915423 -1.474713 8.073305 1.480630 -1.573339 11.544216 -1.667724 1.359406 -7.215440 3.473434 4.587735 6.040377 -50.675907 -16.261978 -48.419682 -6.835669 22.467413 6.232008 -1.326714 -3.681075 6.031610 -2.633259 4.656318 -1.941739 49.837021 -6.567841 45.842674 5.953726 27.409618 -6.551706 7.794374 -3.981339 -0.957538 20.624990 14.123805 32.679325 -5.344910 -5.951964 -15.668571 1.068540 -7.835173 2.496490 -13.047900 -10.900783 31.759386 3.317288 5.995603 -20.062548 -1.291487 7.390806 
-0.202654 49.343670 -2.089722 -11.800475 -1.405220 1.621583 0.000000 0.000000 0.000000 4.336319 -0.759539 -1.356545 7.994421 0.945579 -1.480719 11.738709 -0.945848 0.914837 -7.304712 2.604769 4.618389 6.818358 -50.644337 -16.551794 -48.355042 -6.869731 22.405973 6.282514 -1.499556 -3.693219 5.848517 -3.692897 4.762321 -1.041420 49.951740 -6.377331 45.907486 5.868624 27.157335 -6.473938 7.809258 -3.967371 -0.978000 20.493088 14.033739 32.486538 -5.315148 -5.897097 -15.509321 1.052728 -7.840934 2.548125 -13.115144 -10.978393 31.689322 3.346715 5.959224 -20.004038 -1.293591 7.388783 
-0.208943 49.343792 -2.095408 -11.829635 -1.376395 1.626064 0.000000 0.000000 0.000000 4.385192 -0.798437 -1.350420 8.013199 0.946024 -1.464926 11.767976 -0.906819 0.926282 -7.275347 2.659758 4.670334 6.917060 -50.693882 -16.550253 -48.359859 -6.896399 22.466719 6.057118 -1.494772 -3.681035 5.879848 -3.587153 4.809912 -1.206529 49.922619 -6.364334 45.938313 5.884257 27.051655 -6.393570 7.785160 -3.963166 -0.957623 20.459581 13.984425 32.490662 -5.313357 -5.781148 -15.504029 1.042140 -7.890627 2.567094 -13.132355 -10.981029 31.689810 3.326959 5.993255 -20.023108 -1.280355 7.385740 
-0.222536 49.343040 -2.109843 -11.810292 -1.414729 1.633585 0.000000 0.000000 0.000000 4.385171 -0.778963 -1.339157 8.013069 0.984151 -1.451069 11.738728 -0.965350 0.933297 -7.274035 2.659612 4.671503 6.892641 -50.663834 -16.473289 -48.453339 -6.853068 22.593800 5.962403 -1.393320 -3.675995 5.896975 -3.537232 4.804402 -1.243379 49.903126 -6.363165 45.958229 5.861005 27.361279 -6.362864 7.767595 -3.961588 -1.026882 20.430277 13.904973 32.486290 -5.227184 -5.659993 -15.480061 1.065931 -7.965274 2.527200 -13.070759 -10.943752 31.711203 3.336848 5.919659 -20.015635 -1.296755 7.364787 
-0.239774 49.334866 -2.131525 -11.731952 -1.376884 1.594421 0.000000 0.000000 0.000000 4.346158 -0.827692 -1.332569 7.963398 0.978794 -1.425232 11.777861 -1.033568 0.997203 -7.263310 2.645979 4.629361 6.898709 -50.594418 -16.334904 -48.553665 -6.869734 22.274904 6.143046 -1.312980 -3.676308 5.928271 -3.499533 4.762576 -1.359915 49.952389 -6.419732 45.915844 5.914809 27.338427 -6.361567 7.748106 -3.961590 -1.134170 20.413332 13.861583 32.508625 -5.227452 -5.584254 -15.448512 1.078439 -8.002088 2.340789 -13.096387 -10.897376 31.830727 3.317428 5.922947 -20.045023 -1.280422 7.352396 
-0.247955 49.332592 -2.158117 -11.702231 -1.290967 1.614963 0.000000 0.000000 0.000000 4.365757 -0.886094 -1.405679 7.932093 0.934627 -1.434290 11.778007 -1.170077 1.087268 -7.238870 2.520088 4.629431 6.911294 -50.496765 -16.325577 -48.696724 -6.844069 21.914745 6.188558 -1.261060 -3.678733 5.859757 -3.530313 4.794050 -1.490976 50.148479 -6.535857 45.812378 5.959834 27.283375 -6.368772 7.708487 -3.962119 -1.212210 20.304974 13.766390 32.465782 -5.198583 -5.495487 -15.404634 1.073499 -8.047863 2.235899 -13.203425 -10.940981 31.926298 3.335191 5.963576 -20.056477 -1.273616 7.323033 
-0.264820 49.334480 -2.181775 -11.692463 -1.291012 1.526852 0.000000 0.000000 0.000000 4.356002 -0.895843 -1.347678 7.932878 0.945977 -1.404500 11.826938 -1.248023 1.091632 -7.222347 2.551152 4.625049 6.739484 -50.466068 -16.307669 -48.679527 -6.796399 22.015854 6.048976 -1.221281 -3.671307 5.940433 -3.457259 4.777093 -1.464670 50.080051 -6.527349 45.827183 5.930225 27.199341 -6.313204 7.761055 -3.958954 -1.212427 20.303377 13.786075 32.409054 -5.207666 -5.376218 -15.313202 1.079280 -8.086912 2.146281 -13.167932 -10.874166 31.951283 3.278361 5.940438 -20.017447 -1.282953 7.328173 
-0.275641 49.324032 -2.193239 -11.741259 -1.281223 1.545497 0.000000 0.000000 0.000000 4.356061 -0.944530 -1.292800 7.988992 1.068823 -1.425574 11.836882 -1.384512 1.122751 -7.286693 2.713216 4.627384 6.555213 -50.523338 -16.301397 -48.580006 -6.793148 22.129993 5.978870 -1.196512 -3.667583 5.919761 -3.361164 4.770036 -1.429653 50.060249 -6.487361 45.797035 5.931162 27.151037 -6.214533 7.757712 -3.943910 -1.212149 20.295990 13.755948 32.470467 -5.188382 -5.395660 -15.340175 1.069144 -8.104056 2.136945 -13.169519 -10.863884 32.069740 3.258909 5.972701 -20.088066 -1.281962 7.296134 
-0.285078 49.320007 -2.202539 -11.751162 -1.309860 1.532148 0.000000 0.000000 0.000000 4.336528 -0.944554 -1.302244 7.966092 1.213418 -1.501655 11.856895 -1.696482 1.172865 -7.246644 2.844509 4.627748 6.496162 -50.543533 -16.439796 -48.456047 -6.741017 22.756269 5.712464 -1.311779 -3.662426 5.861644 -3.248918 4.752900 -1.599136 50.109921 -6.602899 45.794594 5.981530 27.194012 -6.145917 7.762188 -3.940208 -1.240563 20.350985 13.765881 32.511692 -5.178823 -5.387757 -15.348833 1.074679 -8.123186 2.107012 -13.089093 -10.786078 32.085445 3.210031 5.912426 -20.095835 -1.292408 7.334801 
-0.283066 49.313091 -2.203735 -11.799911 -1.290509 1.529272 0.000000 0.000000 0.000000 4.326736 -0.925091 -1.388497 7.977188 1.077959 -1.491683 11.797863 -1.423567 1.150810 -7.258214 2.640006 4.603334 6.777290 -50.349857 -16.397446 -48.491093 -6.782842 22.511234 5.787859 -1.267715 -3.656934 5.916512 -3.303827 4.748270 -1.534156 50.119728 -6.641831 45.822788 5.974428 27.139011 -6.127606 7.782955 -3.939148 -1.212191 20.333529 13.778034 32.562485 -5.169259 -5.389525 -15.368272 1.066780 -8.116879 2.126005 -13.106137 -10.798504 32.155113 3.190496 5.931458 -20.125549 -1.296402 7.332851 
